<?xml version="1.0" encoding="UTF-8" standalone="no"?>
<!-- Generator: Adobe Illustrator 16.0.0, SVG Export Plug-In . SVG Version: 6.00 Build 0)  -->

<svg
   xmlns:dc="http://purl.org/dc/elements/1.1/"
   xmlns:cc="http://creativecommons.org/ns#"
   xmlns:rdf="http://www.w3.org/1999/02/22-rdf-syntax-ns#"
   xmlns:svg="http://www.w3.org/2000/svg"
   xmlns="http://www.w3.org/2000/svg"
   xmlns:sodipodi="http://sodipodi.sourceforge.net/DTD/sodipodi-0.dtd"
   xmlns:inkscape="http://www.inkscape.org/namespaces/inkscape"
   version="1.1"
   id="Ebene_1"
   x="0px"
   y="0px"
   width="1500px"
   height="1500px"
   viewBox="0 0 1500 1500"
   enable-background="new 0 0 1500 1500"
   xml:space="preserve"
   sodipodi:docname="logo_weiss_transparent.svg"
   inkscape:version="0.92.0 r15299"><metadata
     id="metadata3764"><rdf:RDF><cc:Work
         rdf:about=""><dc:format>image/svg+xml</dc:format><dc:type
           rdf:resource="http://purl.org/dc/dcmitype/StillImage" /></cc:Work></rdf:RDF></metadata><defs
     id="defs3762" /><sodipodi:namedview
     pagecolor="#ffffff"
     bordercolor="#666666"
     borderopacity="1"
     objecttolerance="10"
     gridtolerance="10"
     guidetolerance="10"
     inkscape:pageopacity="0"
     inkscape:pageshadow="2"
     inkscape:window-width="3200"
     inkscape:window-height="1675"
     id="namedview3760"
     showgrid="false"
     inkscape:zoom="0.932"
     inkscape:cx="559.01288"
     inkscape:cy="750"
     inkscape:window-x="-13"
     inkscape:window-y="-13"
     inkscape:window-maximized="1"
     inkscape:current-layer="Ebene_1" /><rect
     x="-454"
     y="-416"
     display="none"
     fill="#E9B11B"
     width="2408"
     height="2332"
     id="rect3680" /><circle
     display="none"
     fill="#FFFFFF"
     cx="750.634"
     cy="544.599"
     r="341.599"
     id="circle3682" /><path
     d="m 695.717,332 h 5.865 c 3.374,-7 10.885,-11.009 20.982,-11.009 10.097,0 17.609,4.009 20.983,11.009 h 5.54 c 3.385,-7 10.918,-11.009 21.047,-11.009 10.129,0 17.662,4.009 21.047,11.009 h 7.285 c 0.436,-1 1.007,-1.703 1.756,-2.589 C 807.413,320.91 821.2,296 780.003,296 h -0.405 c 0,0 -28.934,0 -32.018,0 -0.257,0 -0.616,0 -1.1,0 -3.086,0 -11.358,0 -32.25,0 -41.197,0 -27.463,24.91 -20.271,33.411 0.75,0.886 1.321,1.589 1.758,2.589 z"
     id="bootle_cap"
     inkscape:connector-curvature="0"
     style="fill:#ffffff" /><path
     fill="#E9B11B"
     d="M848.64,632.257"
     id="path3686" /><path
     fill="#FFFFFF"
     stroke="#E9B11B"
     stroke-width="20"
     stroke-miterlimit="10"
     d="M381.446,818.447"
     id="path3688" /><circle
     opacity="0.9"
     fill="#FFFFFF"
     cx="1100.379"
     cy="353.196"
     r="37.666"
     id="circle3690" /><circle
     opacity="0.7"
     fill="#FFFFFF"
     cx="1146.379"
     cy="439.529"
     r="28.666"
     id="circle3692" /><circle
     opacity="0.9"
     fill="#FFFFFF"
     cx="451.971"
     cy="318.662"
     r="24.919"
     id="circle3694" /><circle
     opacity="0.8"
     fill="#FFFFFF"
     cx="353.62"
     cy="359.013"
     r="28.665"
     id="circle3696" /><circle
     opacity="0.8"
     fill="#FFFFFF"
     cx="381.865"
     cy="428.768"
     r="16.284"
     id="circle3698" /><linearGradient
     id="SVGID_1_"
     gradientUnits="userSpaceOnUse"
     x1="668.4521"
     y1="507.4297"
     x2="818.7109"
     y2="507.4297"><stop
       offset="0"
       style="stop-color:#FFFFFF;stop-opacity:0.7"
       id="stop3700" /><stop
       offset="0.0153"
       style="stop-color:#FFFFFF;stop-opacity:0.7186"
       id="stop3702" /><stop
       offset="0.2462"
       style="stop-color:#FFFFFF"
       id="stop3704" /></linearGradient><path
     d="m 695.257,404.646 c 0,0 -11.104,147.352 -14.374,195.088 -1.963,28.648 -5.051,42.963 -12.431,56.872 16.303,-4.146 40.609,-6.105 65.354,7.219 42.636,22.958 89.145,11.809 84.596,-27.713 -2.373,-9.348 -3.867,-20.691 -4.938,-36.315 -3.27,-47.737 -14.502,-195.147 -14.502,-195.147 0,0 30.248,-17.65 6.465,-54.65 h -21.271 c -2.387,0 -4.676,-0.819 -6.364,-2.508 -1.688,-1.688 -2.636,-3.913 -2.636,-6.299 0,-0.764 -0.137,-1.007 -0.139,-1.009 -0.174,-0.186 -1.565,-0.952 -4.884,-0.952 -3.313,0 -4.705,0.788 -4.9,0.999 0.005,0 -0.122,0.157 -0.122,0.894 0,4.971 -4.029,8.875 -9,8.875 h -19.595 c -4.971,0 -9,-3.9 -9,-8.871 0,-0.786 -0.142,-1.006 -0.143,-1.008 -0.171,-0.176 -1.549,-0.905 -4.81,-0.905 -3.253,0 -4.632,0.773 -4.828,0.979 0.006,0 -0.124,0.171 -0.124,0.926 0,4.971 -4.029,8.879 -9,8.879 H 688.74 c -23.769,37 6.517,54.646 6.517,54.646 z"
     id="bottle_neck"
     inkscape:connector-curvature="0"
     style="opacity:0.75;fill:url(#SVGID_1_)" /><path
     d="m 909.377,525.021 c -21.819,-21.819 -47.287,-38.659 -75.021,-49.973 3.352,44.488 7.31,97.579 9.03,122.702 1.208,17.616 2.895,27.564 5.105,34.576 l 0.148,-0.068 c 0,0 7,12.5 30.615,37.5 18.316,19.391 20.714,48.702 20.897,60.882 0.871,5.677 0.848,9.871 0.848,12.228 v 112.361 c 3,-2.538 5.615,-5.153 8.307,-7.845 43.053,-43.053 66.798,-100.294 66.798,-161.181 0,-60.888 -23.674,-118.129 -66.727,-161.182 z"
     id="border_right"
     inkscape:connector-curvature="0"
     style="opacity:0.5;fill:#ffffff" /><path
     d="m 595.49,734.873 -0.351,0.385 c 0,0 -1.5,-37.847 38.5,-79.673 0.021,-0.021 0.039,-0.04 0.059,-0.061 11.622,-16.305 14.88,-23.109 17.255,-57.775 1.709,-24.949 5.588,-77.492 8.889,-121.792 -26.884,11.3 -51.585,27.823 -72.827,49.065 -43.054,43.053 -66.764,100.295 -66.764,161.181 0,60.887 23.71,118.128 66.764,161.181 2.707,2.707 5.471,5.337 8.287,7.891 l 0.021,-111.891 c -0.102,-2.002 -0.12,-4.884 0.167,-8.511 z"
     id="border_left"
     inkscape:connector-curvature="0"
     style="opacity:0.5;fill:#ffffff" /><g
     opacity="0.75"
     id="g3731"><linearGradient
       id="SVGID_2_"
       gradientUnits="userSpaceOnUse"
       x1="625.251"
       y1="766.4824"
       x2="871.0215"
       y2="766.4824"><stop
         offset="0"
         style="stop-color:#FFFFFF;stop-opacity:0.7"
         id="stop3713" /><stop
         offset="0.0153"
         style="stop-color:#FFFFFF;stop-opacity:0.7186"
         id="stop3715" /><stop
         offset="0.2462"
         style="stop-color:#FFFFFF"
         id="stop3717" /></linearGradient><path
       d="m 625.307,831.269 c 10.769,4.183 28.317,7.873 49.658,10.447 14.818,-26.032 42.457,-42.372 72.971,-42.372 30.505,0 58.127,16.374 72.939,42.437 21.49,-2.577 39.125,-6.3 50.125,-10.524 v -88.844 c 0,0 0.508,-7.215 -3.461,-19.38 -0.762,0.377 -1.495,0.751 -2.248,1.104 l -0.96,0.461 -1.964,0.917 c -0.022,0.011 -0.041,0.021 -0.063,0.03 l -1.085,0.457 -0.927,0.389 c -5.125,2.22 -10.878,4.16 -17.636,5.944 l -0.354,0.085 c -2.914,0.696 -5.927,1.416 -8.998,1.893 -0.488,0.077 -0.975,0.163 -1.46,0.249 -1.069,0.188 -2.175,0.382 -3.296,0.495 l -0.144,0.018 -4.52,0.507 c -1.245,0.157 -2.484,0.227 -3.683,0.286 -0.383,0.019 -0.766,0.051 -1.175,0.074 -0.437,0.02 -0.872,0.066 -1.308,0.088 -1.118,0.057 -2.275,0.036 -3.476,0.05 L 809.709,736 h -0.124 l -2.345,-0.016 c -0.532,-0.021 -1.063,-0.097 -1.593,-0.137 -0.25,-0.019 -0.5,-0.005 -0.767,-0.022 l -0.825,-0.044 c -2.737,-0.201 -5.567,-0.402 -8.288,-0.84 l -4.366,-0.623 c -0.019,-0.003 -0.037,-0.004 -0.055,-0.007 -1.034,-0.179 -2.056,-0.388 -3.043,-0.591 -0.423,-0.088 -0.845,-0.174 -1.284,-0.262 l -2.386,-0.499 -1.774,-0.372 c -0.036,-0.007 -0.072,-0.016 -0.108,-0.025 l -2.005,-0.538 -2.038,-0.546 -1.46,-0.402 -2.467,-0.678 c -0.021,-0.006 -0.043,-0.013 -0.064,-0.02 -0.922,-0.287 -1.83,-0.594 -2.708,-0.891 -0.372,-0.126 -0.742,-0.251 -1.125,-0.379 l -1.218,-0.412 c -2.125,-0.718 -4.133,-1.396 -6.091,-2.237 -0.702,-0.289 -1.398,-0.569 -2.088,-0.848 -1.607,-0.647 -3.127,-1.26 -4.633,-1.943 -0.102,-0.046 -0.207,-0.105 -0.299,-0.167 -0.541,-0.364 -4.964,-2.776 -8.192,-4.538 -4.753,-2.594 -6.886,-3.764 -7.348,-4.077 l -0.021,-0.015 c -2.629,-1.517 -5.156,-3.238 -7.515,-5.119 -4.667,-3.169 -9.842,-6.673 -11.323,-7.676 l -0.336,-0.228 c -12.738,-7.076 -27.504,-10.664 -43.89,-10.664 -9.294,0 -17.659,1.172 -24.163,2.501 -16.346,4.625 -24.084,24.859 -24.084,24.859 -5.347,14.859 -4.362,23.866 -4.362,23.866 z"
       id="bottle_front1"
       inkscape:connector-curvature="0"
       style="fill:url(#SVGID_2_)" /><linearGradient
       id="SVGID_3_"
       gradientUnits="userSpaceOnUse"
       x1="625.291"
       y1="933.3379"
       x2="871"
       y2="933.3379"><stop
         offset="0"
         style="stop-color:#FFFFFF;stop-opacity:0.7"
         id="stop3722" /><stop
         offset="0.0153"
         style="stop-color:#FFFFFF;stop-opacity:0.7186"
         id="stop3724" /><stop
         offset="0.2462"
         style="stop-color:#FFFFFF"
         id="stop3726" /></linearGradient><path
       d="m 814.299,869.664 c -0.455,0.045 -0.875,0.067 -1.323,0.067 -5.607,0 -10.534,-3.481 -12.528,-8.562 -0.002,-0.004 0.005,-0.008 0.003,-0.012 -8.945,-21.148 -29.558,-34.814 -52.519,-34.814 -22.999,0 -43.594,13.674 -52.533,34.853 -0.238,0.595 -0.525,1.159 -0.841,1.705 -0.071,0.125 -0.139,0.253 -0.214,0.374 -0.101,0.162 -0.208,0.318 -0.315,0.476 -0.111,0.164 -0.224,0.326 -0.341,0.484 -0.099,0.132 -0.199,0.261 -0.303,0.389 -0.144,0.179 -0.292,0.354 -0.444,0.524 -0.094,0.104 -0.187,0.21 -0.282,0.312 -0.192,0.203 -0.393,0.396 -0.596,0.586 -0.068,0.063 -0.134,0.131 -0.203,0.193 -0.273,0.243 -0.555,0.475 -0.846,0.694 -0.101,0.076 -0.206,0.145 -0.31,0.219 -0.192,0.137 -0.387,0.272 -0.586,0.399 -0.146,0.093 -0.295,0.181 -0.444,0.268 -0.161,0.095 -0.325,0.186 -0.49,0.273 -0.17,0.09 -0.34,0.178 -0.514,0.261 -0.148,0.071 -0.301,0.136 -0.452,0.201 -0.665,0.288 -1.354,0.523 -2.066,0.702 -0.171,0.043 -0.341,0.086 -0.514,0.122 -0.18,0.038 -0.36,0.07 -0.542,0.101 -0.212,0.035 -0.425,0.065 -0.639,0.091 -0.15,0.018 -0.3,0.037 -0.452,0.05 -0.38,0.032 -0.761,0.054 -1.145,0.054 -0.447,0 -0.896,-0.024 -1.346,-0.069 -16.925,-1.703 -38.667,-4.713 -56.213,-9.872 l -0.011,58.525 122.251,122 0.27,0.073 L 871,915.258 v -55.539 c -18,5.221 -39.686,8.246 -56.701,9.945 z"
       id="bottle_front2"
       inkscape:connector-curvature="0"
       style="fill:url(#SVGID_3_)" /></g><g
     id="g3735"><path
       fill="#FFFFFF"
       d="M814.299,869.664c-0.455,0.045-0.875,0.067-1.323,0.067c-5.607,0-10.534-3.481-12.528-8.562   c-0.002-0.004,0.005-0.008,0.003-0.012c-8.945-21.148-29.628-34.814-52.589-34.814c-18.374,0-34.861,8.733-45.861,23.042v145.563   l45.472,45.309l0.305,0.073L871,915.258v-55.539C853,864.94,831.314,867.965,814.299,869.664z"
       id="path3733" /></g><g
     id="g3739"><path
       fill="#FFFFFF"
       d="M867.539,723.032c-0.762,0.377-1.495,0.751-2.248,1.104l-0.96,0.461l-1.964,0.917   c-0.022,0.011-0.041,0.021-0.063,0.03l-1.085,0.457l-0.927,0.389c-5.125,2.22-10.878,4.16-17.636,5.944l-0.354,0.085   c-2.914,0.696-5.927,1.416-8.998,1.893c-0.488,0.077-0.975,0.163-1.46,0.249c-1.069,0.188-2.175,0.382-3.296,0.495l-0.144,0.018   l-4.52,0.507c-1.245,0.157-2.484,0.227-3.683,0.286c-0.383,0.019-0.766,0.051-1.175,0.074c-0.437,0.02-0.872,0.066-1.308,0.088   c-1.118,0.057-2.275,0.036-3.476,0.05L809.709,736h-0.124l-2.345-0.016c-0.532-0.021-1.063-0.097-1.593-0.137   c-0.25-0.019-0.5-0.005-0.767-0.022l-0.825-0.044c-2.737-0.201-5.567-0.402-8.288-0.84l-4.366-0.623   c-0.019-0.003-0.037-0.004-0.055-0.007c-1.034-0.179-2.056-0.388-3.043-0.591c-0.423-0.088-0.845-0.174-1.284-0.262l-2.386-0.499   l-1.774-0.372c-0.036-0.007-0.072-0.016-0.108-0.025l-2.005-0.538l-2.038-0.546l-1.46-0.402l-2.467-0.678   c-0.021-0.006-0.043-0.013-0.064-0.02c-0.922-0.287-1.83-0.594-2.708-0.891c-0.372-0.126-0.742-0.251-1.125-0.379l-1.218-0.412   c-2.125-0.718-4.133-1.396-6.091-2.237c-0.702-0.289-1.398-0.569-2.088-0.848c-1.607-0.647-3.127-1.26-4.633-1.943   c-0.102-0.046-0.207-0.105-0.299-0.167c-0.541-0.364-4.964-2.776-8.192-4.538c-4.753-2.594-6.886-3.764-7.348-4.077l-0.021-0.015   c-2.629-1.517-5.156-3.238-7.515-5.119c-4.667-3.169-9.842-6.673-11.323-7.676l-0.336-0.228c-2.08-1.156-4.291-2.209-6.477-3.178   C702.328,721.098,702,745.257,702,745.257v67.633c13-8.664,29.201-13.547,45.866-13.547c30.505,0,58.162,16.374,72.975,42.437   c21.49-2.577,39.159-6.3,50.159-10.524v-88.844C871,742.412,871.508,735.197,867.539,723.032z"
       id="path3737" /></g><path
     fill="#FFFFFF"
     d="M818.402,636.119c-2.373-9.348-3.867-20.695-4.938-36.319c-2.24-32.709-8.219-112.146-11.761-158.924  l0.004,0.055c0,0-17.945-15.715-61.628-18.041c0.356,49.05,0.361,181.947-9.2,239.452c0.975,0.479,1.95,0.972,2.927,1.498  C776.442,686.799,822.951,675.642,818.402,636.119z"
     id="path3741" /><path
     fill="#FFFFFF"
     d="M736.747,355c-3.904,7-8.182,23,3.143,49h59.25l0.027,0.394c2.469-1.586,26.354-17.394,9.254-49.394H736.747  z"
     id="path3743" /><g
     id="g3747"><path
       d="m 1009.191,1166.258 c 7.365,-3.796 14.265,-8.398 19.581,-14.318 7.075,-7.878 9.252,-17.66 4.371,-27.107 -5.492,-10.633 -18.168,-17.581 -28.921,-22.632 -17.755,-8.339 -37.111,-13.657 -56.323,-18.046 -22.049,-5.038 -44.481,-8.55 -66.984,-11.273 l -32.932,33.012 c 20.146,3.027 41.082,7.063 59.419,15.559 5.098,2.36 11.069,5.617 14.079,9.818 2.274,3.175 2.056,5.146 -0.327,8.471 -3.016,4.211 -9.55,7.417 -14.614,9.763 -8.595,3.981 -17.916,6.605 -27.14,8.932 -13.842,3.49 -27.966,5.979 -42.191,7.823 -96.598,6.666 -173.308,0 -173.308,0 -15.114,-1.979 -30.117,-4.692 -44.813,-8.479 -8.996,-2.317 -17.939,-5.107 -26.277,-9.078 -5.021,-2.391 -10.7,-5.612 -13.539,-9.873 -1.502,-2.253 -1.571,-3.514 -0.659,-5.989 0.742,-2.009 4.027,-4.987 6.786,-6.841 10.599,-7.121 23.849,-10.75 36.259,-13.88 8.578,-2.163 17.269,-3.968 26.028,-5.497 l -33.29,-33.357 c -31.831,3.937 -63.438,9.912 -93.547,19.624 -20.274,6.539 -59.861,20.101 -55.315,46.565 1.846,10.744 12.713,18.648 21.825,24.017 1.645,0.969 3.322,1.893 5.021,2.788 0,0 66.763,39.999 258.094,39.999 191.331,0 258.717,-40.001 258.717,-40.001 z"
       id="circle"
       inkscape:connector-curvature="0"
       style="opacity:0.8;fill:#ffffff" /></g><g
     display="none"
     id="g3753"><path
       display="inline"
       opacity="0.8"
       fill="#FFFFFF"
       d="M490.22,1019.212c1.645,0.969,3.322,1.893,5.02,2.788h171.521   c-15.114-1.979-30.117-4.692-44.812-8.479c-8.996-2.317-17.939-5.107-26.278-9.078c-5.021-2.391-10.7-5.612-13.539-9.873   c-1.501-2.253-1.571-3.514-0.659-5.989c0.742-2.009,4.027-4.987,6.786-6.841c10.599-7.121,23.848-10.75,36.259-13.88   c8.578-2.163,17.268-3.968,26.028-5.497l-33.29-33.357c-31.832,3.937-63.439,9.912-93.547,19.624   c-20.275,6.539-59.861,20.101-55.315,46.565C470.24,1005.939,481.107,1013.844,490.22,1019.212z"
       id="path3749" /><path
       display="inline"
       opacity="0.8"
       fill="#FFFFFF"
       d="M924.342,987.012c2.274,3.175,2.056,5.146-0.327,8.471   c-3.016,4.211-9.55,7.417-14.614,9.763c-8.595,3.981-17.916,6.605-27.14,8.932c-13.842,3.49-27.966,5.979-42.191,7.823h171.982   c7.365-3.796,14.265-8.398,19.581-14.318c7.075-7.878,9.252-17.66,4.371-27.107c-5.492-10.633-18.168-17.581-28.921-22.632   c-17.755-8.339-37.111-13.657-56.323-18.046c-22.049-5.038-44.481-8.55-66.984-11.273l-32.932,33.012   c20.146,3.027,41.082,7.063,59.419,15.559C915.36,979.554,921.332,982.811,924.342,987.012z"
       id="path3751" /></g><path
     fill="#FF0000"
     d="M685.863,855.228"
     id="path3755" /><path
     d="m 1129.143,778.933 c -1.386,-7.274 -4.161,-14.479 -9.28,-19.966 -3.233,-3.467 -6.139,-7.261 -8.779,-11.192 -11.682,-17.39 -18.578,-37.537 -18.742,-58.572 0,-0.098 -0.013,-0.193 -0.033,-0.285 0.206,-19.294 6.032,-38.139 16.309,-54.448 6.111,-9.701 15.758,-17.786 19.105,-28.993 1.266,-4.234 2.066,-8.621 2.251,-13.043 0.069,-1.681 0.568,-4.489 -0.214,-6.084 -2.711,-5.526 -6.596,-10.823 -11.174,-14.935 -8.416,-7.558 -19.046,-9.449 -28.871,-14.46 -18.035,-9.198 -33.36,-22.845 -43.652,-40.369 -0.015,-0.026 -0.035,-0.046 -0.052,-0.071 -2.421,-4.289 -4.635,-8.706 -6.366,-13.324 -6.904,-18.402 -8.919,-39.102 -5.014,-58.444 1.332,-6.602 1.718,-13.07 -0.072,-19.692 -1.328,-4.913 -3.626,-13.862 -8.331,-16.796 -7.395,-4.611 -16.419,-8.012 -25.229,-7.831 -4.921,0.101 -9.487,1.422 -14.33,2.091 -22.645,3.13 -45.999,-0.711 -66.056,-11.783 -0.112,-0.18 -0.263,-0.339 -0.456,-0.452 -16.412,-9.64 -29.718,-23.813 -38.746,-40.544 -5.023,-9.308 -7.229,-20.576 -13.611,-29.047 -4.221,-5.603 -10.079,-10.295 -16.289,-13.543 -3.522,-1.841 -8.934,-1.033 -13.109,-0.223 0.15,2.034 0.108,4.104 -0.164,6.199 -1.05,8.069 -2.705,15.683 -6.298,22.794 7.854,11.114 11.914,26.179 12.533,38.503 0.673,13.406 -3.575,26.864 -11.205,37.975 116.174,36.564 200.432,145.128 200.432,273.38 0,81.347 -33.902,154.773 -88.34,206.935 L 747.14,1090.932 548.919,892.713 c -54.438,-52.162 -88.34,-125.588 -88.34,-206.935 0,-128.217 84.213,-236.756 200.341,-273.351 -7.601,-10.924 -12.007,-24.142 -11.254,-37.169 0.719,-12.452 4.63,-28.058 12.555,-39.465 -2.028,-3.887 -3.79,-8.01 -4.744,-12.225 -1.297,-5.724 -1.638,-11.268 -1.063,-16.537 -4.238,-0.841 -9.968,-1.803 -13.643,0.118 -6.21,3.248 -12.068,7.941 -16.289,13.543 -6.382,8.472 -8.588,19.74 -13.611,29.047 -9.029,16.732 -22.334,30.904 -38.747,40.544 -0.192,0.113 -0.343,0.272 -0.456,0.452 -20.056,11.071 -43.41,14.913 -66.055,11.783 -4.843,-0.669 -9.409,-1.99 -14.33,-2.091 -8.811,-0.182 -17.835,3.22 -25.229,7.831 -4.705,2.934 -7.003,11.883 -8.331,16.796 -1.79,6.623 -1.404,13.09 -0.072,19.692 3.904,19.342 1.891,40.042 -5.014,58.444 -1.731,4.618 -3.945,9.035 -6.366,13.324 -0.017,0.025 -0.037,0.045 -0.052,0.071 -10.292,17.523 -25.617,31.17 -43.652,40.369 -9.825,5.011 -20.455,6.902 -28.871,14.46 -4.578,4.112 -8.463,9.408 -11.175,14.935 -0.781,1.595 -0.283,4.403 -0.213,6.084 0.184,4.422 0.985,8.809 2.251,13.043 3.347,11.207 12.994,19.292 19.105,28.993 10.276,16.309 16.103,35.154 16.308,54.448 -0.021,0.092 -0.032,0.187 -0.032,0.285 -0.164,21.035 -7.061,41.182 -18.742,58.572 -2.641,3.931 -5.546,7.725 -8.78,11.192 -5.118,5.486 -7.894,12.691 -9.279,19.966 -0.852,4.466 -2.114,10.716 0.142,14.925 3.482,6.494 8.413,12.189 14.288,16.615 3.879,2.923 8.154,4.409 12.631,5.957 5.635,1.946 11.048,4.508 16.268,7.377 16.388,9.016 30.253,22.16 39.734,38.306 0.113,0.192 0.271,0.342 0.451,0.454 11.072,20.059 14.913,43.414 11.784,66.059 -0.669,4.844 -1.991,9.41 -2.092,14.332 -0.181,8.811 3.22,17.834 7.831,25.229 2.934,4.705 11.883,7.002 16.796,8.332 6.622,1.789 13.09,1.402 19.692,0.07 0,0 49.716,-9.77 81.483,21.998 19.346,19.346 75.569,75.539 116.58,116.525 l 0.083,-0.148 c 11.805,12.768 28.2,19.375 46.331,19.375 18.132,0 34.526,-6.607 46.331,-19.375 l 0.109,0.123 c 41.009,-40.984 97.211,-97.158 116.554,-116.5 31.768,-31.768 81.483,-22.039 81.483,-22.039 6.603,1.332 13.07,1.738 19.692,-0.051 4.913,-1.328 13.862,-3.617 16.796,-8.32 4.611,-7.396 8.012,-16.414 7.831,-25.225 -0.102,-4.922 -1.423,-9.484 -2.092,-14.328 -3.13,-22.645 0.712,-46 11.784,-66.058 0.18,-0.112 0.338,-0.261 0.451,-0.455 9.481,-16.144 23.347,-29.289 39.734,-38.304 5.219,-2.869 10.632,-5.431 16.268,-7.377 4.477,-1.548 8.752,-3.034 12.631,-5.957 5.875,-4.426 10.806,-10.121 14.287,-16.615 2.257,-4.209 0.994,-10.459 0.143,-14.924 z"
     id="bottlecap_border"
     inkscape:connector-curvature="0"
     style="fill:#ffffff" /></svg>